<?xml version="1.0" encoding="iso-8859-1"?>
<!-- Generator: Adobe Illustrator 19.0.0, SVG Export Plug-In . SVG Version: 6.00 Build 0)  -->
<svg version="1.1" id="Layer_1" xmlns="http://www.w3.org/2000/svg" xmlns:xlink="http://www.w3.org/1999/xlink" x="0px" y="0px"
	 viewBox="0 0 512 512" style="enable-background:new 0 0 512 512;" xml:space="preserve">
<path style="fill:#507C5C;" d="M124.222,217.9c-7.804,0-14.132-6.328-14.132-14.132v-57.859C110.09,65.454,175.545,0,255.999,0
	s145.909,65.454,145.909,145.909v4.35c0,7.803-6.328,14.132-14.132,14.132c-7.803,0-14.132-6.328-14.132-14.132v-4.35
	c0-64.87-52.776-117.646-117.646-117.646S138.353,81.039,138.353,145.909v57.859C138.353,211.574,132.026,217.9,124.222,217.9z"/>
<path style="fill:#CFF09E;" d="M300.493,426.742l-20.598-52.517c9.511-7.223,15.656-18.648,15.656-31.514
	c0-21.843-17.708-39.552-39.552-39.552s-39.552,17.708-39.552,39.552c0,12.864,6.146,24.29,15.656,31.514l-20.598,52.517H300.493z"
	/>
<g>
	<path style="fill:#507C5C;" d="M300.494,440.875h-88.988c-4.673,0-9.043-2.311-11.676-6.17c-2.633-3.859-3.187-8.772-1.481-13.121
		l17.118-43.646c-8.454-9.672-13.152-22.044-13.152-35.226c0-29.602,24.082-53.683,53.683-53.683s53.683,24.082,53.683,53.683
		c0,13.182-4.697,25.554-13.152,35.226l17.118,43.646c1.706,4.35,1.152,9.262-1.481,13.121
		C309.537,438.565,305.166,440.875,300.494,440.875z M232.228,412.612h47.543l-13.032-33.226
		c-2.309-5.886-0.427-12.588,4.608-16.413c6.402-4.863,10.073-12.248,10.073-20.261c0-14.017-11.403-25.42-25.42-25.42
		c-14.017,0-25.42,11.403-25.42,25.42c0,8.013,3.671,15.398,10.073,20.261c5.035,3.824,6.917,10.527,4.608,16.413L232.228,412.612z"
		/>
	<path style="fill:#507C5C;" d="M426.626,370.262c-7.804,0-14.132-6.328-14.132-14.132V240.582
		c0-12.507-10.175-22.681-22.681-22.681H122.187c-12.507,0-22.681,10.175-22.681,22.681v21.775c0,7.803-6.328,14.132-14.132,14.132
		s-14.132-6.328-14.132-14.132v-21.775c0-28.091,22.854-50.945,50.945-50.945h267.627c28.091,0,50.945,22.854,50.945,50.945v115.549
		C440.758,363.934,434.43,370.262,426.626,370.262z"/>
	<path style="fill:#507C5C;" d="M389.806,512H122.194c-28.094,0-50.95-22.857-50.95-50.95v-130.36
		c0-7.803,6.328-14.132,14.132-14.132s14.132,6.328,14.132,14.132v130.36c0,12.509,10.176,22.687,22.687,22.687h267.613
		c12.511,0,22.687-10.178,22.687-22.687c0-7.803,6.328-14.132,14.132-14.132s14.132,6.328,14.132,14.132
		C440.757,489.143,417.9,512,389.806,512z"/>
</g>
<path style="fill:#CFF09E;" d="M426.522,389.811h-36.034c-14.178,0-25.672-11.493-25.672-25.672V352.36
	c0-14.178,11.493-25.672,25.672-25.672h36.034L426.522,389.811L426.522,389.811z"/>
<path style="fill:#507C5C;" d="M426.52,403.942h-36.034c-21.946,0-39.802-17.855-39.802-39.802v-11.779
	c0-21.948,17.855-39.803,39.802-39.803h36.034c7.803,0,14.132,6.328,14.132,14.132v63.12
	C440.652,397.614,434.325,403.942,426.52,403.942z M390.486,340.822c-6.362,0-11.539,5.176-11.539,11.54v11.779
	c0,6.362,5.176,11.539,11.539,11.539h21.903v-34.857L390.486,340.822L390.486,340.822z"/>
<path style="fill:#CFF09E;" d="M426.522,326.45h-36.034c-14.178,0-25.672-11.493-25.672-25.672V289
	c0-14.178,11.493-25.672,25.672-25.672h36.034L426.522,326.45L426.522,326.45z"/>
<path style="fill:#507C5C;" d="M426.52,340.582h-36.034c-21.946,0-39.802-17.855-39.802-39.803V289
	c0-21.946,17.855-39.802,39.802-39.802h36.034c7.803,0,14.132,6.328,14.132,14.132v63.12
	C440.652,334.253,434.325,340.582,426.52,340.582z M390.486,277.461c-6.362,0-11.539,5.176-11.539,11.539v11.779
	c0,6.363,5.176,11.54,11.539,11.54h21.903v-34.857H390.486z"/>
<g>
</g>
<g>
</g>
<g>
</g>
<g>
</g>
<g>
</g>
<g>
</g>
<g>
</g>
<g>
</g>
<g>
</g>
<g>
</g>
<g>
</g>
<g>
</g>
<g>
</g>
<g>
</g>
<g>
</g>
</svg>
